<?xml version="1.0" encoding="UTF-8"?>
<svg viewBox="0 0 680 420" xmlns="http://www.w3.org/2000/svg" role="img" font-family="system-ui, -apple-system, BlinkMacSystemFont, 'Segoe UI', sans-serif">
<title>Anatomy of an audit-ready report</title>
<desc>Stylized AICertify report showing header, executive summary, policy results, risk assessment, and remediation sections.</desc>
<defs><clipPath id="dcL"><rect x="60" y="20" width="260" height="380" rx="8"/></clipPath></defs>

<rect x="60" y="20" width="260" height="380" rx="8" fill="#ffffff" stroke="#e2e8f0"/>
<g clip-path="url(#dcL)"><rect x="60" y="20" width="260" height="52" fill="#4f46e5"/></g>
<text x="80" y="44" font-size="13" font-weight="500" fill="#ffffff">EU AI Act compliance</text>
<text x="80" y="60" font-size="10" fill="#c7d2fe">customer-support-bot · 2026-05-14</text>

<text x="80" y="98" font-size="10" font-weight="500" fill="#0f172a">Executive summary</text>
<rect x="80" y="106" width="220" height="3" rx="1.5" fill="#e2e8f0"/>
<rect x="80" y="114" width="220" height="3" rx="1.5" fill="#e2e8f0"/>
<rect x="80" y="122" width="220" height="3" rx="1.5" fill="#e2e8f0"/>
<rect x="80" y="130" width="160" height="3" rx="1.5" fill="#e2e8f0"/>

<text x="80" y="158" font-size="10" font-weight="500" fill="#0f172a">Policy results</text>
<rect x="80" y="166" width="220" height="14" rx="2" fill="#f8fafc" stroke="#e2e8f0" stroke-width="0.5"/>
<rect x="80" y="180" width="220" height="14" fill="#ffffff" stroke="#e2e8f0" stroke-width="0.5"/>
<rect x="80" y="194" width="220" height="14" fill="#ffffff" stroke="#e2e8f0" stroke-width="0.5"/>
<rect x="80" y="208" width="220" height="14" fill="#ffffff" stroke="#e2e8f0" stroke-width="0.5"/>
<rect x="86" y="172" width="120" height="3" rx="1.5" fill="#cbd5e1"/>
<rect x="86" y="186" width="130" height="3" rx="1.5" fill="#e2e8f0"/>
<rect x="86" y="200" width="110" height="3" rx="1.5" fill="#e2e8f0"/>
<rect x="86" y="214" width="140" height="3" rx="1.5" fill="#e2e8f0"/>
<circle cx="288" cy="187" r="3" fill="#10b981"/>
<circle cx="288" cy="201" r="3" fill="#10b981"/>
<circle cx="288" cy="215" r="3" fill="#f59e0b"/>

<text x="80" y="244" font-size="10" font-weight="500" fill="#0f172a">Risk assessment</text>
<line x1="84" y1="254" x2="84" y2="294" stroke="#e2e8f0" stroke-width="0.5"/>
<line x1="84" y1="294" x2="306" y2="294" stroke="#e2e8f0" stroke-width="0.5"/>
<rect x="100" y="272" width="22" height="22" rx="2" fill="#818cf8"/>
<rect x="132" y="262" width="22" height="32" rx="2" fill="#818cf8"/>
<rect x="164" y="254" width="22" height="40" rx="2" fill="#6366f1"/>
<rect x="196" y="268" width="22" height="26" rx="2" fill="#818cf8"/>
<rect x="228" y="278" width="22" height="16" rx="2" fill="#a5b4fc"/>
<rect x="260" y="284" width="22" height="10" rx="2" fill="#c7d2fe"/>

<text x="80" y="320" font-size="10" font-weight="500" fill="#0f172a">Remediation</text>
<circle cx="86" cy="332" r="2.5" fill="#f59e0b"/>
<rect x="96" y="330" width="200" height="3" rx="1.5" fill="#e2e8f0"/>
<circle cx="86" cy="344" r="2.5" fill="#f59e0b"/>
<rect x="96" y="342" width="200" height="3" rx="1.5" fill="#e2e8f0"/>
<circle cx="86" cy="356" r="2.5" fill="#94a3b8"/>
<rect x="96" y="354" width="170" height="3" rx="1.5" fill="#e2e8f0"/>

<line x1="80" y1="376" x2="300" y2="376" stroke="#e2e8f0" stroke-width="0.5"/>
<text x="80" y="390" font-size="9" fill="#94a3b8">AICertify v0.7.0 · run #a4f3 · Apache 2.0</text>

<line x1="320" y1="46" x2="345" y2="46" stroke="#cbd5e1" stroke-width="0.5" stroke-dasharray="3 3"/>
<circle cx="350" cy="46" r="3" fill="#4f46e5"/>
<text x="362" y="44" font-size="13" font-weight="500" fill="#0f172a">Header</text>
<text x="362" y="60" font-size="11" fill="#64748b">Framework, model, date</text>

<line x1="320" y1="115" x2="345" y2="115" stroke="#cbd5e1" stroke-width="0.5" stroke-dasharray="3 3"/>
<circle cx="350" cy="115" r="3" fill="#4f46e5"/>
<text x="362" y="113" font-size="13" font-weight="500" fill="#0f172a">Executive summary</text>
<text x="362" y="129" font-size="11" fill="#64748b">Outcome at a glance</text>

<line x1="320" y1="190" x2="345" y2="190" stroke="#cbd5e1" stroke-width="0.5" stroke-dasharray="3 3"/>
<circle cx="350" cy="190" r="3" fill="#4f46e5"/>
<text x="362" y="188" font-size="13" font-weight="500" fill="#0f172a">Policy results</text>
<text x="362" y="204" font-size="11" fill="#64748b">Per-rule pass status</text>

<line x1="320" y1="270" x2="345" y2="270" stroke="#cbd5e1" stroke-width="0.5" stroke-dasharray="3 3"/>
<circle cx="350" cy="270" r="3" fill="#4f46e5"/>
<text x="362" y="268" font-size="13" font-weight="500" fill="#0f172a">Risk assessment</text>
<text x="362" y="284" font-size="11" fill="#64748b">Severity by category</text>

<line x1="320" y1="342" x2="345" y2="342" stroke="#cbd5e1" stroke-width="0.5" stroke-dasharray="3 3"/>
<circle cx="350" cy="342" r="3" fill="#d97706"/>
<text x="362" y="340" font-size="13" font-weight="500" fill="#0f172a">Remediation</text>
<text x="362" y="356" font-size="11" fill="#92400e">Required follow-ups</text>
</svg>
