<?xml version="1.0" encoding="UTF-8"?>
<svg viewBox="0 0 680 180" xmlns="http://www.w3.org/2000/svg" role="img" font-family="system-ui, -apple-system, BlinkMacSystemFont, 'Segoe UI', sans-serif">
<title>How AICertify works</title>
<desc>Four-step flow from AI application to audit-ready report.</desc>
<defs>
<marker id="al" viewBox="0 0 10 10" refX="8" refY="5" markerWidth="6" markerHeight="6" orient="auto"><path d="M2 1L8 5L2 9" fill="none" stroke="#94a3b8" stroke-width="1.5" stroke-linecap="round" stroke-linejoin="round"/></marker>
</defs>

<g>
<rect x="22" y="30" width="138" height="120" rx="10" fill="#ffffff" stroke="#e2e8f0" stroke-width="1"/>
<rect x="34" y="42" width="26" height="18" rx="9" fill="#eef2ff"/>
<text x="47" y="51" font-size="10" font-weight="500" fill="#4f46e5" text-anchor="middle" dominant-baseline="central">01</text>
<g transform="translate(77, 68)" fill="none" stroke="#4f46e5" stroke-width="1.5" stroke-linecap="round" stroke-linejoin="round">
<rect x="4" y="4" width="20" height="20" rx="2.5"/><rect x="9" y="9" width="10" height="10" rx="1"/>
<line x1="4" y1="10" x2="1" y2="10"/><line x1="4" y1="18" x2="1" y2="18"/>
<line x1="24" y1="10" x2="27" y2="10"/><line x1="24" y1="18" x2="27" y2="18"/>
<line x1="10" y1="4" x2="10" y2="1"/><line x1="18" y1="4" x2="18" y2="1"/>
<line x1="10" y1="24" x2="10" y2="27"/><line x1="18" y1="24" x2="18" y2="27"/>
</g>
<text x="91" y="120" font-size="13" font-weight="500" fill="#0f172a" text-anchor="middle">AI application</text>
<text x="91" y="138" font-size="11" font-weight="400" fill="#64748b" text-anchor="middle">Real interactions</text>
</g>

<line x1="164" y1="90" x2="184" y2="90" stroke="#94a3b8" stroke-width="1.5" marker-end="url(#al)"/>

<g>
<rect x="188" y="30" width="138" height="120" rx="10" fill="#ffffff" stroke="#e2e8f0" stroke-width="1"/>
<rect x="200" y="42" width="26" height="18" rx="9" fill="#eef2ff"/>
<text x="213" y="51" font-size="10" font-weight="500" fill="#4f46e5" text-anchor="middle" dominant-baseline="central">02</text>
<g transform="translate(243, 68)" fill="none" stroke="#4f46e5" stroke-width="1.5" stroke-linecap="round" stroke-linejoin="round">
<path d="M6 3 L17 3 L22 8 L22 25 L6 25 Z"/><path d="M17 3 L17 8 L22 8"/>
<line x1="10" y1="13" x2="19" y2="13"/><line x1="10" y1="17" x2="19" y2="17"/><line x1="10" y1="21" x2="15" y2="21"/>
</g>
<text x="257" y="120" font-size="13" font-weight="500" fill="#0f172a" text-anchor="middle">Contract</text>
<text x="257" y="138" font-size="11" font-weight="400" fill="#64748b" text-anchor="middle">Inputs + outputs</text>
</g>

<line x1="330" y1="90" x2="350" y2="90" stroke="#94a3b8" stroke-width="1.5" marker-end="url(#al)"/>

<g>
<rect x="354" y="30" width="138" height="120" rx="10" fill="#ffffff" stroke="#e2e8f0" stroke-width="1"/>
<rect x="366" y="42" width="26" height="18" rx="9" fill="#eef2ff"/>
<text x="379" y="51" font-size="10" font-weight="500" fill="#4f46e5" text-anchor="middle" dominant-baseline="central">03</text>
<g transform="translate(409, 68)" fill="none" stroke="#4f46e5" stroke-width="1.5" stroke-linecap="round" stroke-linejoin="round">
<path d="M14 3 L22 6 L22 14 C22 19 18 23 14 25 C10 23 6 19 6 14 L6 6 Z"/>
<polyline points="10,14 13,17 18,11"/>
</g>
<text x="423" y="120" font-size="13" font-weight="500" fill="#0f172a" text-anchor="middle">OPA evaluation</text>
<text x="423" y="138" font-size="11" font-weight="400" fill="#64748b" text-anchor="middle">Policy as code</text>
</g>

<line x1="496" y1="90" x2="516" y2="90" stroke="#94a3b8" stroke-width="1.5" marker-end="url(#al)"/>

<g>
<rect x="520" y="30" width="138" height="120" rx="10" fill="#fffbeb" stroke="#fde68a" stroke-width="1"/>
<rect x="532" y="42" width="26" height="18" rx="9" fill="#fef3c7"/>
<text x="545" y="51" font-size="10" font-weight="500" fill="#b45309" text-anchor="middle" dominant-baseline="central">04</text>
<g transform="translate(575, 68)" fill="none" stroke="#d97706" stroke-width="1.5" stroke-linecap="round" stroke-linejoin="round">
<rect x="5" y="3" width="18" height="22" rx="1.5"/>
<line x1="9" y1="9" x2="19" y2="9"/>
<line x1="11" y1="18" x2="11" y2="21"/><line x1="14" y1="15" x2="14" y2="21"/><line x1="17" y1="13" x2="17" y2="21"/>
</g>
<text x="589" y="120" font-size="13" font-weight="500" fill="#0f172a" text-anchor="middle">Audit report</text>
<text x="589" y="138" font-size="11" font-weight="400" fill="#92400e" text-anchor="middle">PDF · MD · JSON</text>
</g>
</svg>
