<?xml version="1.0" encoding="UTF-8"?>
<svg viewBox="0 0 680 450" xmlns="http://www.w3.org/2000/svg" role="img" font-family="system-ui, -apple-system, BlinkMacSystemFont, 'Segoe UI', sans-serif">
<title>Regulatory coverage</title>
<desc>94 production Rego policies across 15+ frameworks and 5 industries.</desc>

<text x="170" y="60" font-size="36" font-weight="500" fill="#fbbf24" text-anchor="middle">94</text>
<text x="170" y="80" font-size="12" fill="#8b949e" text-anchor="middle">Rego policies</text>
<text x="340" y="60" font-size="36" font-weight="500" fill="#fbbf24" text-anchor="middle">15+</text>
<text x="340" y="80" font-size="12" fill="#8b949e" text-anchor="middle">frameworks</text>
<text x="510" y="60" font-size="36" font-weight="500" fill="#fbbf24" text-anchor="middle">5</text>
<text x="510" y="80" font-size="12" fill="#8b949e" text-anchor="middle">industries</text>

<line x1="40" y1="98" x2="640" y2="98" stroke="#30363d" stroke-width="0.5"/>

<g>
<rect x="22" y="110" width="308" height="150" rx="10" fill="#161b22" stroke="#30363d"/>
<rect x="22" y="110" width="308" height="4" fill="#6366f1"/>
<g transform="translate(46, 128)" fill="none" stroke="#a5b4fc" stroke-width="1.5" stroke-linecap="round" stroke-linejoin="round">
<circle cx="8" cy="8" r="6.5"/><line x1="1.5" y1="8" x2="14.5" y2="8"/><ellipse cx="8" cy="8" rx="3" ry="6.5"/>
</g>
<text x="70" y="142" font-size="14" font-weight="500" fill="#f0f6fc">International standards</text>
<line x1="46" y1="156" x2="306" y2="156" stroke="#21262d" stroke-width="1"/>
<circle cx="52" cy="172" r="2.5" fill="#818cf8"/><text x="62" y="176" font-size="12" fill="#c9d1d9">EU AI Act</text>
<circle cx="52" cy="192" r="2.5" fill="#818cf8"/><text x="62" y="196" font-size="12" fill="#c9d1d9">NIST AI RMF</text>
<circle cx="52" cy="212" r="2.5" fill="#818cf8"/><text x="62" y="216" font-size="12" fill="#c9d1d9">India DPDP</text>
<circle cx="52" cy="232" r="2.5" fill="#818cf8"/><text x="62" y="236" font-size="12" fill="#c9d1d9">Brazil AI Bill</text>
</g>

<g>
<rect x="350" y="110" width="308" height="150" rx="10" fill="#161b22" stroke="#30363d"/>
<rect x="350" y="110" width="308" height="4" fill="#6366f1"/>
<g transform="translate(374, 128)" fill="none" stroke="#a5b4fc" stroke-width="1.5" stroke-linecap="round" stroke-linejoin="round">
<path d="M14 1 L2 9 L9 11 L11 14 Z"/><line x1="9" y1="11" x2="14" y2="1"/>
</g>
<text x="398" y="142" font-size="14" font-weight="500" fill="#f0f6fc">Aviation</text>
<line x1="374" y1="156" x2="634" y2="156" stroke="#21262d" stroke-width="1"/>
<circle cx="380" cy="172" r="2.5" fill="#818cf8"/><text x="390" y="176" font-size="12" fill="#c9d1d9">ICAO Doc 10019</text>
<circle cx="380" cy="192" r="2.5" fill="#818cf8"/><text x="390" y="196" font-size="12" fill="#c9d1d9">FAA Part 107</text>
<circle cx="380" cy="212" r="2.5" fill="#818cf8"/><text x="390" y="216" font-size="12" fill="#c9d1d9">EASA SORA</text>
<circle cx="380" cy="232" r="2.5" fill="#818cf8"/><text x="390" y="236" font-size="12" fill="#c9d1d9">RTCA DO-365/366</text>
</g>

<g>
<rect x="22" y="280" width="308" height="150" rx="10" fill="#161b22" stroke="#30363d"/>
<rect x="22" y="280" width="308" height="4" fill="#6366f1"/>
<g transform="translate(46, 298)" fill="none" stroke="#a5b4fc" stroke-width="1.5" stroke-linecap="round" stroke-linejoin="round">
<rect x="2" y="5" width="12" height="10"/><line x1="5" y1="8" x2="5" y2="13"/><line x1="8" y1="8" x2="8" y2="13"/><line x1="11" y1="8" x2="11" y2="13"/>
</g>
<text x="70" y="312" font-size="14" font-weight="500" fill="#f0f6fc">Industry verticals</text>
<line x1="46" y1="326" x2="306" y2="326" stroke="#21262d" stroke-width="1"/>
<circle cx="52" cy="342" r="2.5" fill="#818cf8"/><text x="62" y="346" font-size="12" fill="#c9d1d9">Healthcare</text>
<circle cx="52" cy="362" r="2.5" fill="#818cf8"/><text x="62" y="366" font-size="12" fill="#c9d1d9">Banking &amp; finance</text>
<circle cx="52" cy="382" r="2.5" fill="#818cf8"/><text x="62" y="386" font-size="12" fill="#c9d1d9">Automotive</text>
<circle cx="52" cy="402" r="2.5" fill="#818cf8"/><text x="62" y="406" font-size="12" fill="#c9d1d9">Education</text>
</g>

<g>
<rect x="350" y="280" width="308" height="150" rx="10" fill="#161b22" stroke="#30363d"/>
<rect x="350" y="280" width="308" height="4" fill="#6366f1"/>
<g transform="translate(374, 298)" fill="none" stroke="#a5b4fc" stroke-width="1.5" stroke-linecap="round" stroke-linejoin="round">
<circle cx="8" cy="8" r="6.5"/><path d="M8 3 L11 8 L8 13 L5 8 Z"/>
</g>
<text x="398" y="312" font-size="14" font-weight="500" fill="#f0f6fc">Cross-cutting principles</text>
<line x1="374" y1="326" x2="634" y2="326" stroke="#21262d" stroke-width="1"/>
<circle cx="380" cy="342" r="2.5" fill="#818cf8"/><text x="390" y="346" font-size="12" fill="#c9d1d9">Fairness &amp; bias</text>
<circle cx="380" cy="362" r="2.5" fill="#818cf8"/><text x="390" y="366" font-size="12" fill="#c9d1d9">Content safety</text>
<circle cx="380" cy="382" r="2.5" fill="#818cf8"/><text x="390" y="386" font-size="12" fill="#c9d1d9">Transparency</text>
<circle cx="380" cy="402" r="2.5" fill="#818cf8"/><text x="390" y="406" font-size="12" fill="#c9d1d9">Risk management</text>
</g>
</svg>
