<?xml version="1.0" encoding="UTF-8"?>
<svg viewBox="0 0 1200 630" xmlns="http://www.w3.org/2000/svg" role="img" font-family="system-ui, -apple-system, BlinkMacSystemFont, 'Segoe UI', sans-serif">
<title>AICertify — Compliance-as-code for AI systems</title>
<desc>AICertify social card with logo, wordmark, tagline, framework chips, and project URL.</desc>

<rect x="0" y="0" width="1200" height="630" fill="#ffffff"/>

<g transform="translate(310, 130) scale(2.6)">
<polygon points="8,40 24,12 56,12 72,40 56,68 24,68" fill="#4f46e5"/>
<polyline points="28,42 38,50 52,34" fill="none" stroke="#ffffff" stroke-width="4" stroke-linecap="round" stroke-linejoin="round"/>
</g>

<text x="540" y="280" font-size="120" font-weight="500" fill="#0f172a" letter-spacing="-0.025em">AICertify</text>

<text x="600" y="365" font-size="38" font-weight="500" fill="#4f46e5" text-anchor="middle">Compliance-as-code for AI systems</text>
<text x="600" y="405" font-size="22" font-weight="400" fill="#64748b" text-anchor="middle">One contract · One command · Audit-ready reports</text>

<g>
<rect x="296" y="476" width="120" height="36" rx="18" fill="#eef2ff"/>
<text x="356" y="494" font-size="16" font-weight="500" fill="#4338ca" text-anchor="middle" dominant-baseline="central">EU AI Act</text>
</g>
<g>
<rect x="432" y="476" width="148" height="36" rx="18" fill="#eef2ff"/>
<text x="506" y="494" font-size="16" font-weight="500" fill="#4338ca" text-anchor="middle" dominant-baseline="central">NIST AI RMF</text>
</g>
<g>
<rect x="596" y="476" width="172" height="36" rx="18" fill="#fef3c7"/>
<text x="682" y="494" font-size="16" font-weight="500" fill="#b45309" text-anchor="middle" dominant-baseline="central">ICAO Doc 10019</text>
</g>
<g>
<rect x="784" y="476" width="120" height="36" rx="18" fill="#eef2ff"/>
<text x="844" y="494" font-size="16" font-weight="500" fill="#4338ca" text-anchor="middle" dominant-baseline="central">+13 more</text>
</g>

<line x1="120" y1="568" x2="1080" y2="568" stroke="#e2e8f0" stroke-width="1"/>
<text x="120" y="600" font-size="18" font-weight="400" fill="#64748b">github.com/Principled-Evolution/aicertify</text>
<text x="1080" y="600" font-size="18" font-weight="400" fill="#64748b" text-anchor="end">94 Rego policies · Apache 2.0</text>
</svg>
